<svg id="visual" viewBox="0 0 2560 1440" width="2560" height="1440" xmlns="http://www.w3.org/2000/svg" xmlns:xlink="http://www.w3.org/1999/xlink" version="1.1"><path d="M0 383L61 400.7C122 418.3 244 453.7 365.8 438.8C487.7 424 609.3 359 731.2 308.5C853 258 975 222 1097 224.8C1219 227.7 1341 269.3 1463 326.8C1585 384.3 1707 457.7 1828.8 456.2C1950.7 454.7 2072.3 378.3 2194.2 351.3C2316 324.3 2438 346.7 2499 357.8L2560 369L2560 0L2499 0C2438 0 2316 0 2194.2 0C2072.3 0 1950.7 0 1828.8 0C1707 0 1585 0 1463 0C1341 0 1219 0 1097 0C975 0 853 0 731.2 0C609.3 0 487.7 0 365.8 0C244 0 122 0 61 0L0 0Z" fill="#0066FF" stroke-linecap="round" stroke-linejoin="miter"></path></svg>